<?xml version="1.0" standalone="no"?>
<!DOCTYPE svg PUBLIC "-//W3C//DTD SVG 20010904//EN"
 "http://www.w3.org/TR/2001/REC-SVG-20010904/DTD/svg10.dtd">
<svg version="1.0" xmlns="http://www.w3.org/2000/svg"
 width="982.000000pt" height="350.000000pt" viewBox="0 0 982.000000 350.000000"
 preserveAspectRatio="xMidYMid meet">

<g transform="translate(0.000000,350.000000) scale(0.100000,-0.100000)"
fill="none" stroke="currentColor" stroke-width="6">
<path class="draw-path" d="M1265 3214 c-289 -65 -502 -262 -626 -582 -69 -180 -119 -463 -119
-682 0 -100 -8 -109 -57 -70 -33 25 -77 26 -102 1 -50 -50 -50 -183 -1 -233
34 -33 58 -35 94 -7 43 34 61 23 63 -41 15 -350 77 -642 183 -855 122 -246
292 -393 528 -457 63 -17 108 -21 242 -22 288 -2 461 55 815 266 287 171 350
195 495 185 112 -8 166 -23 351 -100 177 -73 241 -92 359 -107 228 -28 428 11
539 106 43 36 91 111 91 141 0 36 -28 82 -53 87 -12 3 -69 7 -127 10 -129 6
-196 20 -280 58 -105 47 -174 127 -199 232 -21 85 10 161 87 214 94 63 115 65
1022 82 283 6 823 17 1200 25 2120 47 2053 46 2134 15 53 -20 128 -83 173
-144 25 -34 46 -62 48 -64 1 -2 38 6 81 18 162 43 257 52 587 57 l318 4 189
125 c105 69 190 129 190 135 0 13 -43 31 -243 104 l-159 58 25 21 c32 27 49
79 37 111 -7 18 -23 28 -65 40 -51 15 -58 15 -80 1 -31 -20 -50 -78 -35 -106
14 -26 10 -25 -78 7 -71 25 -73 27 -54 42 38 29 56 117 29 139 -23 20 -113 35
-136 23 -24 -13 -45 -74 -37 -107 8 -29 6 -29 -88 9 l-54 22 24 28 c13 15 26
44 30 64 6 31 3 40 -19 58 -14 13 -46 26 -72 30 -65 9 -90 -14 -90 -85 0 -28
-2 -49 -5 -47 -3 1 -36 13 -73 26 -60 22 -86 41 -56 41 16 0 51 88 44 111 -9
27 -42 46 -95 54 -31 4 -50 2 -61 -7 -25 -20 -40 -74 -29 -103 5 -14 8 -25 7
-25 -2 0 -32 11 -67 25 -35 14 -73 25 -83 25 -11 0 -37 -16 -59 -36 -75 -67
-81 -68 -388 -66 -1220 10 -3571 44 -3601 52 -112 30 -165 128 -124 226 58
139 227 261 435 313 109 27 287 37 410 22 87 -11 96 -11 120 7 57 43 30 131
-78 244 -108 113 -269 165 -479 153 -199 -11 -293 -32 -618 -140 -268 -89
-387 -115 -566 -122 -239 -10 -342 16 -739 184 -406 173 -553 212 -815 219
-130 3 -187 0 -240 -12z m492 -53 c175 -39 297 -82 583 -206 188 -81 284 -118
393 -147 72 -20 105 -23 277 -22 240 0 309 13 626 119 348 116 451 137 669
138 115 0 139 -3 204 -26 120 -42 194 -102 259 -208 46 -77 26 -101 -73 -87
-38 6 -135 8 -215 5 -178 -6 -265 -27 -407 -98 -268 -133 -378 -354 -243 -484
35 -33 38 -45 11 -45 -23 0 -67 50 -92 105 -70 152 66 339 337 467 137 64 214
80 417 85 97 3 177 9 177 13 0 18 -106 102 -163 130 -84 41 -178 53 -320 40
-189 -16 -251 -31 -562 -135 -286 -96 -377 -115 -585 -122 -249 -8 -342 14
-722 177 -428 184 -643 238 -897 227 -136 -6 -207 -23 -316 -76 -208 -102
-352 -292 -454 -596 -50 -150 -76 -433 -68 -740 22 -796 241 -1221 682 -1321
57 -13 117 -18 210 -17 266 1 435 62 810 287 88 53 193 111 235 129 73 31 79
32 215 32 160 0 204 -10 404 -96 197 -85 263 -101 443 -107 127 -3 170 -1 228
13 80 20 164 70 198 119 41 59 36 63 -100 69 -195 8 -329 56 -423 151 -69 69
-97 132 -103 227 -5 92 8 138 55 190 47 52 64 50 20 -1 -91 -107 -65 -283 59
-400 92 -87 209 -128 389 -136 139 -7 152 -9 160 -34 8 -26 -33 -98 -77 -136
-141 -119 -456 -137 -719 -40 -52 19 -144 55 -206 81 -138 57 -248 79 -363 73
-105 -6 -184 -37 -366 -145 -301 -176 -413 -229 -569 -271 -251 -66 -484 -51
-684 45 -207 99 -363 318 -446 623 -67 250 -90 492 -82 870 6 277 26 440 75
615 106 376 326 610 637 679 99 22 356 15 482 -13z m-179 -114 c-2 -8 -203
-223 -448 -479 -324 -339 -452 -479 -470 -516 -14 -28 -28 -48 -31 -44 -8 9
16 220 35 304 19 85 57 193 101 283 120 247 301 398 539 450 85 19 279 20 274
2z m290 -47 l57 -18 -57 -1 c-31 -1 -63 -4 -71 -7 -8 -3 -95 -89 -193 -192
-98 -103 -266 -279 -374 -392 -108 -113 -277 -289 -376 -393 -135 -141 -184
-199 -198 -235 -10 -26 -22 -56 -27 -67 -5 -13 -8 12 -8 67 l-1 87 563 591
c554 581 562 590 595 585 18 -4 59 -14 90 -25z m321 -440 c54 -11 165 -40 247
-65 279 -86 352 -100 599 -119 28 -2 -8 -2 -80 1 -154 5 -254 24 -512 97 -249
72 -346 89 -453 84 -68 -4 -97 -10 -144 -33 -109 -55 -172 -157 -177 -290 l-2
-68 143 -3 c105 -2 145 -6 152 -16 4 -7 7 -40 6 -73 l-3 -60 -60 3 c-192 8
-178 9 -194 -20 -14 -24 -14 -28 4 -48 18 -19 28 -21 134 -18 l116 3 0 -30 0
-30 -122 3 c-117 4 -122 3 -133 -18 -9 -17 -9 -29 -1 -47 11 -23 15 -24 99
-22 85 2 87 1 84 -20 -3 -18 1 -22 15 -19 10 2 17 11 15 21 -2 12 4 17 23 17
21 0 25 -5 25 -29 0 -25 -4 -29 -32 -33 -18 -2 -46 0 -63 3 -61 13 -143 10
-159 -7 -21 -21 -20 -47 3 -68 16 -14 36 -17 132 -14 l114 3 0 -30 c0 -30 0
-30 -55 -28 -30 1 -81 5 -113 9 -48 5 -62 3 -78 -12 -23 -21 -24 -47 -2 -69
14 -14 34 -16 132 -13 115 3 116 3 119 -21 5 -33 -6 -71 -20 -71 -7 0 -54 17
-106 37 -87 34 -94 36 -110 20 -14 -14 -14 -21 -4 -37 18 -29 16 -30 -37 -30
-65 0 -81 7 -81 36 0 20 5 24 30 24 l30 0 0 299 0 300 -32 3 c-26 2 -34 8 -36
27 -6 37 7 71 26 71 14 0 17 11 18 69 4 160 90 281 237 332 70 24 185 24 306
-1z m11 -60 c47 -11 139 -35 205 -55 334 -99 427 -115 666 -115 164 0 212 7
352 52 81 25 102 29 123 20 45 -21 49 -50 31 -190 -9 -69 -15 -127 -13 -129 2
-2 46 -6 99 -10 90 -6 95 -7 86 -24 -8 -16 -22 -19 -93 -19 -78 0 -85 2 -100
25 -20 31 -39 32 -68 3 -19 -19 -33 -22 -104 -22 -64 -1 -86 -5 -102 -19 -16
-14 -33 -17 -88 -15 l-69 3 -6 43 c-10 80 -60 122 -143 122 -44 0 -53 -4 -87
-39 -25 -27 -39 -53 -44 -80 l-7 -41 -153 0 -152 0 -7 42 c-5 29 -18 52 -45
80 -34 34 -44 38 -87 38 -83 0 -144 -57 -144 -135 l0 -25 -129 0 c-148 0 -141
-5 -140 93 1 33 -4 64 -10 70 -8 8 -61 13 -141 15 l-130 4 0 31 c1 103 65 215
151 261 84 47 186 51 349 16z m6092 -298 c7 -7 6 -22 -2 -46 -9 -27 -17 -36
-35 -36 -15 0 -25 -7 -28 -21 -3 -12 -10 -18 -16 -14 -6 3 -8 17 -5 31 4 17 1
26 -10 30 -19 7 -20 27 -5 56 9 17 18 19 51 15 22 -3 45 -10 50 -15z m-5835
-69 c27 -18 53 -68 53 -103 0 -19 -6 -20 -121 -20 l-122 0 6 43 c8 60 51 97
113 97 25 0 56 -7 71 -17z m609 -17 c28 -28 34 -42 34 -75 l0 -41 -82 4 c-46
3 -100 5 -121 5 l-38 1 7 38 c13 70 49 100 123 101 36 1 48 -4 77 -33z m5651
-248 c393 -148 673 -258 673 -265 0 -7 -65 -56 -145 -109 l-145 -97 -322 -2
c-333 -2 -420 -10 -572 -52 l-60 -17 -25 35 c-75 101 -195 177 -293 187 -65 6
-58 27 9 27 79 -1 186 -59 262 -141 l60 -66 108 21 c178 35 285 42 558 40 150
-2 267 1 276 7 45 28 219 156 219 162 0 4 -290 116 -643 250 l-644 243 -52
-35 c-82 -55 -186 -81 -210 -52 -9 11 -2 14 39 19 59 7 130 37 172 72 16 14
37 25 46 25 9 0 319 -114 689 -252z m-173 242 c41 -15 28 -90 -15 -90 -13 0
-23 -8 -26 -20 -7 -28 -29 -19 -25 9 2 13 -4 31 -13 40 -12 14 -13 24 -6 45
11 28 39 34 85 16z m-3405 -56 c2 -2 -4 -10 -12 -19 -23 -23 -175 -21 -216 3
-26 15 -33 15 -53 3 -27 -16 -209 -16 -219 1 -4 7 -18 8 -35 3 -16 -4 -73 -10
-127 -12 -79 -4 -100 -1 -113 11 -19 20 -38 20 -54 1 -9 -11 -35 -15 -105 -15
-70 0 -96 4 -105 15 -7 8 -23 15 -35 15 -12 0 -28 -7 -35 -15 -9 -11 -35 -15
-101 -15 -49 0 -89 2 -89 4 0 2 -3 12 -6 21 -7 16 36 17 647 10 360 -4 656 -9
658 -11z m265 -19 c-24 -19 -204 -21 -222 -3 -7 7 -12 14 -12 18 0 3 57 4 126
2 111 -3 124 -5 108 -17z m-1866 -13 c2 -14 -2 -22 -11 -22 -20 0 -26 9 -20
31 7 25 27 19 31 -9z m270 0 c2 -15 -2 -22 -12 -22 -11 0 -16 9 -16 26 0 31
23 28 28 -4z m2145 21 c4 -3 -1 -12 -11 -19 -26 -20 -195 -19 -212 1 -15 19
-39 19 -63 0 -24 -17 -192 -9 -222 11 -17 12 19 14 241 14 143 0 264 -3 267
-7z m-4305 -61 c2 -41 0 -54 -13 -59 -23 -8 -35 13 -35 63 0 45 6 56 30 52 11
-2 16 -18 18 -56z m4572 43 c-10 -11 -35 -15 -110 -15 -75 0 -100 4 -110 15
-11 13 2 15 110 15 108 0 121 -2 110 -15z m270 -2 c-20 -15 -42 -17 -115 -14
-55 2 -97 9 -110 17 -17 12 -3 14 115 14 131 0 134 0 110 -17z m283 9 c4 -2 3
-10 -4 -18 -8 -10 -37 -14 -106 -14 -81 0 -99 3 -121 21 l-27 21 125 -3 c69
-2 129 -5 133 -7z m-2693 -17 c0 -8 -7 -15 -15 -15 -8 0 -15 7 -15 15 0 8 7
15 15 15 8 0 15 -7 15 -15z m270 -5 c0 -11 -4 -20 -9 -20 -14 0 -23 18 -16 30
10 17 25 11 25 -10z m273 5 c7 -16 -8 -29 -23 -20 -10 6 -2 35 10 35 4 0 10
-7 13 -15z m2427 0 c-10 -11 -35 -15 -110 -15 -75 0 -100 4 -110 15 -11 13 2
15 110 15 108 0 121 -2 110 -15z m330 6 c0 -5 -7 -14 -15 -21 -20 -17 -250 -3
-266 16 -10 12 12 14 135 14 80 0 146 -4 146 -9z m234 -1 c104 0 117 -2 106
-15 -16 -19 -269 -22 -288 -3 -22 22 -13 31 26 24 20 -3 90 -6 156 -6z m-2714
-15 c0 -8 -7 -15 -15 -15 -8 0 -15 7 -15 15 0 8 7 15 15 15 8 0 15 -7 15 -15z
m268 -3 c2 -7 -3 -12 -12 -12 -9 0 -16 7 -16 16 0 17 22 14 28 -4z m267 -12
c-5 -8 -11 -8 -17 -2 -6 6 -7 16 -3 22 5 8 11 8 17 2 6 -6 7 -16 3 -22z m3401
7 c8 -8 8 -23 2 -44 -7 -26 -14 -33 -33 -33 -15 0 -26 -7 -30 -20 -10 -32 -28
-24 -22 9 4 20 2 31 -8 35 -16 6 -19 33 -9 61 6 14 15 16 48 11 23 -4 46 -12
52 -19z m-7246 -17 c0 -10 -5 -22 -10 -25 -13 -8 -24 20 -16 41 8 20 26 9 26
-16z m4120 15 c0 -8 -4 -15 -9 -15 -13 0 -22 16 -14 24 11 11 23 6 23 -9z
m272 0 c0 -5 -5 -11 -11 -13 -6 -2 -11 4 -11 13 0 9 5 15 11 13 6 -2 11 -8 11
-13z m278 -6 c0 -5 -7 -9 -15 -9 -15 0 -20 12 -9 23 8 8 24 -1 24 -14z m1925
-4 c14 -13 25 -30 25 -37 0 -18 -29 -58 -41 -58 -6 0 -3 7 5 16 23 22 21 48
-1 35 -21 -12 -53 3 -53 25 0 8 -4 12 -10 9 -18 -11 -10 -42 15 -59 25 -16 33
-36 16 -36 -22 0 -53 38 -53 65 0 30 32 65 59 65 7 0 25 -11 38 -25z m-1655 5
c0 -5 -7 -10 -15 -10 -8 0 -15 5 -15 10 0 6 7 10 15 10 8 0 15 -4 15 -10z
m282 -5 c0 -5 -5 -11 -11 -13 -6 -2 -11 4 -11 13 0 9 5 15 11 13 6 -2 11 -8
11 -13z m278 -6 c0 -5 -7 -9 -15 -9 -15 0 -20 12 -9 23 8 8 24 -1 24 -14z
m-3100 -4 c140 -3 642 -7 1115 -10 473 -4 1308 -10 1855 -15 547 -5 1021 -10
1053 -10 35 0 57 -4 57 -11 0 -11 -150 -11 -1830 6 -272 3 -839 7 -1260 10
-421 3 -943 7 -1160 10 -217 3 -765 8 -1217 11 -545 4 -823 10 -823 17 0 9
1586 4 2210 -8z m3420 5 c0 -5 -4 -10 -10 -10 -5 0 -10 5 -10 10 0 6 5 10 10
10 6 0 10 -4 10 -10z m345 0 c3 -5 -1 -10 -10 -10 -9 0 -13 5 -10 10 3 6 8 10
10 10 2 0 7 -4 10 -10z m-5507 -78 l3 -33 -133 3 -133 3 1 25 c1 14 2 29 3 33
0 4 58 6 129 5 l127 -3 3 -33z m124 11 c4 -34 33 -39 32 -5 -1 20 4 22 53 22
52 0 53 0 53 -30 l0 -30 -120 0 -120 0 0 28 c0 38 6 42 56 42 39 0 43 -2 46
-27z m1166 -12 c3 -27 0 -32 -15 -29 -19 3 -28 30 -19 54 10 26 31 10 34 -25z
m-698 -1 l0 -30 -155 0 -155 0 0 30 0 30 155 0 155 0 0 -30z m120 9 c0 -15 5
-20 23 -17 15 2 21 9 19 21 -2 14 5 17 48 17 49 0 50 -1 50 -30 l0 -30 -115 0
c-94 0 -117 3 -121 15 -12 31 4 45 51 45 39 0 45 -3 45 -21z m300 -9 l0 -30
-65 0 c-49 0 -67 4 -71 15 -14 34 3 45 71 45 l65 0 0 -30z m550 0 c0 -20 -5
-30 -15 -30 -10 0 -15 10 -15 30 0 20 5 30 15 30 10 0 15 -10 15 -30z m270 0
c0 -20 -5 -30 -15 -30 -10 0 -15 10 -15 30 0 20 5 30 15 30 10 0 15 -10 15
-30z m270 0 c0 -20 -5 -30 -15 -30 -10 0 -15 10 -15 30 0 20 5 30 15 30 10 0
15 -10 15 -30z m278 -3 c3 -22 -1 -27 -17 -27 -15 0 -21 6 -21 23 0 46 33 49
38 4z m272 -2 c0 -16 -6 -25 -15 -25 -9 0 -15 9 -15 25 0 16 6 25 15 25 9 0
15 -9 15 -25z m270 0 c0 -16 -6 -25 -15 -25 -9 0 -15 9 -15 25 0 16 6 25 15
25 9 0 15 -9 15 -25z m270 0 c0 -16 -6 -25 -15 -25 -9 0 -15 9 -15 25 0 16 6
25 15 25 9 0 15 -9 15 -25z m270 0 c0 -16 -6 -25 -15 -25 -15 0 -21 31 -8 43
13 14 23 6 23 -18z m3373 14 c41 -11 42 -13 26 -58 -7 -20 -18 -31 -30 -31
-10 0 -23 -9 -29 -20 -16 -30 -33 -25 -25 9 4 21 2 30 -9 34 -18 7 -20 30 -6
58 12 22 21 23 73 8z m-3093 -19 c0 -13 -7 -20 -20 -20 -19 0 -27 20 -13 33
13 14 33 6 33 -13z m270 0 c0 -11 -7 -20 -15 -20 -8 0 -15 9 -15 20 0 11 7 20
15 20 8 0 15 -9 15 -20z m270 0 c0 -11 -7 -20 -15 -20 -8 0 -15 9 -15 20 0 11
7 20 15 20 8 0 15 -9 15 -20z m288 -3 c2 -12 -3 -17 -17 -17 -12 0 -21 6 -21
13 0 31 32 34 38 4z m270 0 c2 -10 -3 -17 -12 -17 -10 0 -16 9 -16 21 0 24 23
21 28 -4z m-5438 -48 c0 -57 -1 -60 -22 -57 -19 2 -24 10 -26 47 -4 55 2 71
28 71 18 0 20 -6 20 -61z m5770 46 c0 -8 -9 -15 -20 -15 -11 0 -20 7 -20 15 0
8 9 15 20 15 11 0 20 -7 20 -15z m338 -2 c-4 -22 -22 -20 -26 1 -2 10 3 16 13
16 10 0 15 -7 13 -17z m711 -8 c34 -32 0 -105 -49 -105 -20 0 -60 44 -60 67 0
8 11 25 25 39 27 26 55 26 84 -1z m-6879 -35 c0 -10 -5 -22 -10 -25 -13 -8
-24 20 -16 41 8 20 26 9 26 -16z m-1140 0 c6 -12 21 -20 35 -20 21 0 25 -5 25
-30 0 -28 -3 -30 -36 -30 -28 0 -35 -3 -32 -17 2 -12 15 -20 36 -23 39 -6 46
-23 11 -30 -13 -3 -36 -13 -51 -23 -31 -21 -62 -11 -73 25 -13 39 -8 117 9
143 20 31 61 33 76 5z m7348 0 c413 0 552 -3 552 -12 0 -8 -790 -10 -3283 -5
-1805 4 -3283 7 -3284 7 -2 0 -3 5 -3 12 0 9 655 10 2733 5 1502 -4 2981 -7
3285 -7z m-4258 -70 c0 -15 -6 -30 -14 -33 -19 -8 -26 1 -26 33 0 32 7 41 26
33 8 -3 14 -18 14 -33z m-1327 24 c33 -6 37 -10 37 -36 l0 -29 -132 3 c-119 3
-133 5 -136 21 -7 37 16 47 107 47 47 0 103 -3 124 -6z m125 0 c21 -4 32 -13
34 -28 4 -27 33 -28 33 -1 0 24 28 34 73 27 28 -4 32 -8 32 -33 l0 -29 -120 0
-120 0 0 29 c0 38 15 45 68 35z m502 -35 l0 -29 -155 0 -155 0 0 30 0 29 143
3 c78 2 148 1 155 -1 6 -2 12 -16 12 -32z m123 14 c-8 -19 17 -35 34 -22 6 6
9 17 6 25 -4 11 6 14 46 14 50 0 51 -1 51 -30 l0 -31 -117 3 -118 3 -3 27 c-3
25 0 27 40 30 55 4 68 0 61 -19z m292 -8 l0 -30 -65 0 c-63 0 -65 1 -68 27 -4
30 7 34 83 34 49 -1 50 -2 50 -31z m555 5 c0 -20 -5 -30 -15 -30 -10 0 -15 10
-15 30 0 20 5 30 15 30 10 0 15 -10 15 -30z m270 0 c0 -20 -5 -30 -15 -30 -10
0 -15 10 -15 30 0 20 5 30 15 30 10 0 15 -10 15 -30z m270 0 c0 -20 -5 -30
-15 -30 -10 0 -15 10 -15 30 0 20 5 30 15 30 10 0 15 -10 15 -30z m275 0 c0
-36 -29 -33 -33 3 -3 23 0 28 15 25 12 -2 18 -12 18 -28z m273 3 c-4 -39 -28
-42 -28 -4 0 21 5 31 16 31 11 0 14 -8 12 -27z m272 2 c0 -16 -6 -25 -15 -25
-9 0 -15 9 -15 25 0 16 6 25 15 25 9 0 15 -9 15 -25z m270 0 c0 -16 -6 -25
-15 -25 -9 0 -15 9 -15 25 0 16 6 25 15 25 9 0 15 -9 15 -25z m270 0 c0 -16
-6 -25 -15 -25 -9 0 -15 9 -15 25 0 16 6 25 15 25 9 0 15 -9 15 -25z m280 6
c0 -11 -5 -23 -11 -27 -15 -9 -33 12 -26 30 9 23 37 20 37 -3z m268 -3 c-5
-32 -28 -35 -28 -4 0 17 5 26 16 26 10 0 14 -7 12 -22z m272 -3 c0 -16 -6 -25
-15 -25 -9 0 -15 9 -15 25 0 16 6 25 15 25 9 0 15 -9 15 -25z m288 2 c2 -12
-3 -17 -17 -17 -12 0 -21 6 -21 13 0 31 32 34 38 4z m272 3 c0 -11 -7 -20 -15
-20 -8 0 -15 9 -15 20 0 11 7 20 15 20 8 0 15 -9 15 -20z m328 -3 c2 -12 -3
-17 -17 -17 -12 0 -21 6 -21 13 0 31 32 34 38 4z m342 3 c0 -11 -7 -20 -15
-20 -8 0 -15 9 -15 20 0 11 7 20 15 20 8 0 15 -9 15 -20z m992 -14 c17 -25 8
-66 -18 -82 -34 -23 -75 -9 -88 29 -12 33 -1 56 34 74 25 12 56 3 72 -21z
m-7104 -69 c3 -56 2 -58 -20 -55 -19 2 -23 10 -26 47 -4 54 3 73 25 69 14 -2
19 -15 21 -61z m6977 34 c-6 -5 -501 -12 -1130 -15 -616 -4 -2152 -13 -3414
-21 -1261 -8 -2299 -11 -2305 -7 -20 13 227 17 1128 20 489 1 892 4 895 6 3 2
751 7 1661 11 910 4 1657 9 1659 11 2 2 344 4 760 4 440 0 751 -4 746 -9z
m-7035 -30 c0 -23 -16 -36 -25 -21 -9 14 1 40 15 40 5 0 10 -9 10 -19z m7418
-17 c35 -24 26 -104 -12 -104 -5 0 -2 8 7 18 22 24 21 35 -2 29 -24 -6 -51 10
-51 30 0 13 -3 13 -15 3 -20 -17 -19 -41 3 -47 21 -5 48 -43 32 -43 -18 0 -60
48 -60 69 0 20 43 61 64 61 6 0 22 -7 34 -16z m-2753 -22 c0 -31 -19 -28 -23
4 -3 18 0 25 10 22 7 -3 13 -14 13 -26z m275 3 c0 -16 -6 -25 -15 -25 -9 0
-15 9 -15 25 0 16 6 25 15 25 9 0 15 -9 15 -25z m287 9 c8 -21 -13 -42 -28
-27 -13 13 -5 43 11 43 6 0 13 -7 17 -16z m271 -6 c-2 -13 -7 -23 -13 -23 -5
0 -11 10 -13 23 -2 15 2 22 13 22 11 0 15 -7 13 -22z m332 1 c0 -25 -33 -22
-38 4 -2 12 3 17 17 17 15 0 21 -6 21 -21z m340 1 c0 -11 -7 -20 -15 -20 -8 0
-15 9 -15 20 0 11 7 20 15 20 8 0 15 -9 15 -20z m-3135 -26 c0 -19 -5 -29 -15
-29 -16 0 -25 28 -16 51 10 25 31 10 31 -22z m275 6 c0 -20 -5 -30 -15 -30
-10 0 -15 10 -15 30 0 20 5 30 15 30 10 0 15 -10 15 -30z m270 0 c0 -20 -5
-30 -15 -30 -10 0 -15 10 -15 30 0 20 5 30 15 30 10 0 15 -10 15 -30z m268 5
c-2 -14 -7 -26 -13 -26 -5 0 -11 12 -13 26 -2 18 1 25 13 25 12 0 15 -7 13
-25z m272 0 c0 -16 -6 -25 -15 -25 -9 0 -15 9 -15 25 0 16 6 25 15 25 9 0 15
-9 15 -25z m280 6 c0 -11 -5 -23 -11 -27 -15 -9 -33 12 -26 30 9 23 37 20 37
-3z m-2452 -23 c-4 -44 -38 -53 -38 -10 0 32 7 42 27 42 10 0 13 -10 11 -32z
m270 0 c-2 -18 -7 -33 -13 -33 -5 0 -11 15 -13 33 -3 24 1 32 13 32 12 0 16
-8 13 -32z m272 2 c0 -20 -5 -30 -15 -30 -10 0 -15 10 -15 30 0 20 5 30 15 30
10 0 15 -10 15 -30z m270 0 c0 -20 -5 -30 -15 -30 -10 0 -15 10 -15 30 0 20 5
30 15 30 10 0 15 -10 15 -30z m-1510 -15 l0 -35 -155 0 -155 0 0 29 c0 38 4
38 173 40 l137 1 0 -35z m260 5 c0 -21 -5 -30 -17 -32 -86 -7 -101 -4 -83 17
14 17 -16 43 -32 27 -8 -8 -8 -15 2 -26 16 -21 -3 -28 -61 -24 -33 2 -45 8
-47 21 -8 43 2 47 123 47 l115 0 0 -30z m160 0 l0 -30 -70 0 c-67 0 -70 1 -70
23 0 34 6 37 77 37 l63 0 0 -30z m-1012 -12 l-3 -33 -127 -3 -128 -3 0 36 0
35 131 0 130 0 -3 -32z m124 10 c2 -13 10 -23 18 -23 9 0 15 9 14 23 -1 20 4
22 53 22 52 0 53 0 53 -30 l0 -30 -120 0 -120 0 0 30 c0 29 1 30 49 30 44 0
50 -3 53 -22z m6523 3 c-6 -5 -476 -14 -1045 -20 -569 -6 -1165 -13 -1325 -16
-159 -3 -492 -7 -740 -10 -247 -3 -643 -8 -880 -11 -2978 -38 -3144 -39 -3130
-25 11 9 47 10 2665 42 921 11 2121 26 2665 33 1243 16 1802 19 1790 7z
m-7245 -81 c0 -46 -4 -62 -16 -67 -22 -8 -34 14 -34 68 0 50 5 59 32 59 15 0
18 -8 18 -60z m-60 0 c0 -25 -18 -36 -26 -16 -8 21 3 49 16 41 5 -3 10 -15 10
-25z m5220 20 c0 -5 -4 -10 -10 -10 -5 0 -10 5 -10 10 0 6 5 10 10 10 6 0 10
-4 10 -10z m270 0 c0 -5 -2 -10 -4 -10 -3 0 -8 5 -11 10 -3 6 -1 10 4 10 6 0
11 -4 11 -10z m628 -7 c3 -10 -29 -13 -139 -13 -90 0 -139 4 -133 9 20 21 265
23 272 4z m-1726 -8 c0 -5 -5 -11 -11 -13 -6 -2 -11 4 -11 13 0 9 5 15 11 13
6 -2 11 -8 11 -13z m278 5 c0 -5 -7 -10 -15 -10 -8 0 -15 5 -15 10 0 6 7 10
15 10 8 0 15 -4 15 -10z m270 0 c0 -5 -4 -10 -9 -10 -6 0 -13 5 -16 10 -3 6 1
10 9 10 9 0 16 -4 16 -10z m229 -20 c-6 -4 -56 -8 -111 -9 -78 -2 -99 1 -96
11 3 9 34 15 99 18 90 5 135 -4 108 -20z m279 13 c3 -10 -22 -13 -103 -13 -96
0 -106 2 -95 15 17 20 191 18 198 -2z m326 9 c5 -9 -244 -26 -252 -18 -2 3 -1
9 3 15 8 13 241 15 249 3z m-2199 -22 c0 -7 -6 -15 -12 -17 -8 -3 -13 4 -13
17 0 13 5 20 13 18 6 -3 12 -11 12 -18z m275 5 c0 -8 -7 -15 -15 -15 -8 0 -15
7 -15 15 0 8 7 15 15 15 8 0 15 -7 15 -15z m268 4 c-2 -6 -8 -10 -13 -10 -5 0
-11 4 -13 10 -2 6 4 11 13 11 9 0 15 -5 13 -11z m769 -6 c3 -8 -24 -13 -92
-15 -95 -3 -113 1 -100 22 9 15 187 9 192 -7z m-2131 -29 c-5 -13 -10 -14 -18
-6 -6 6 -8 18 -4 28 5 13 10 14 18 6 6 -6 8 -18 4 -28z m280 25 c10 -17 -13
-36 -27 -22 -12 12 -4 33 11 33 5 0 12 -5 16 -11z m272 -6 c-4 -22 -22 -20
-26 1 -2 10 3 16 13 16 10 0 15 -7 13 -17z m1035 3 c4 -11 -15 -15 -94 -21
-105 -8 -127 -3 -95 21 27 20 182 20 189 0z m275 -3 c3 -10 -22 -13 -102 -13
-91 0 -105 2 -99 15 4 13 22 15 101 13 65 -2 97 -7 100 -15z m-2673 -28 c0
-16 -6 -30 -12 -32 -9 -3 -13 7 -13 32 0 25 4 35 13 33 6 -3 12 -17 12 -33z
m273 13 c-5 -32 -28 -35 -28 -4 0 17 5 26 16 26 10 0 14 -7 12 -22z m272 2 c0
-11 -7 -20 -15 -20 -8 0 -15 9 -15 20 0 11 7 20 15 20 8 0 15 -9 15 -20z
m1306 9 c12 -20 -20 -29 -109 -29 -67 0 -88 3 -85 13 7 20 182 35 194 16z
m274 -4 c0 -12 -18 -15 -100 -15 -92 0 -112 5 -93 23 3 4 48 7 100 7 76 0 93
-3 93 -15z m-542 -12 c3 -10 -21 -13 -97 -13 -93 0 -113 5 -94 24 13 12 186 2
191 -11z m-2263 -27 c57 -119 214 -119 257 1 l12 33 73 0 c51 0 81 -5 98 -16
19 -12 43 -15 102 -13 68 4 78 2 81 -13 3 -15 -4 -18 -51 -18 l-55 0 -23 -82
c-18 -64 -24 -107 -24 -188 0 -94 3 -111 27 -160 40 -81 114 -168 186 -217 58
-39 129 -66 237 -89 30 -7 41 -14 43 -31 6 -39 -29 -48 -193 -47 -184 0 -232
11 -443 99 -188 79 -276 103 -402 111 -156 9 -263 -26 -498 -165 -211 -125
-392 -201 -573 -239 -203 -43 -265 -39 -290 20 -15 37 -14 39 84 159 172 211
265 456 267 702 0 45 1 47 30 47 16 0 63 -13 103 -29 143 -57 176 -62 462 -73
149 -6 304 -10 346 -10 131 2 193 38 125 71 -32 15 -87 16 -461 12 -221 -3
-274 2 -363 30 l-34 11 6 57 c3 31 5 57 5 59 1 1 59 2 131 2 l130 0 14 -34
c24 -59 98 -92 162 -74 40 11 94 62 94 90 0 19 30 23 217 26 l102 2 16 -34z
m108 18 c-7 -20 17 -37 34 -23 6 6 9 17 6 25 -4 11 6 14 46 14 63 0 67 -16 17
-66 -29 -29 -41 -34 -80 -34 -36 0 -52 6 -81 31 -19 17 -35 40 -35 50 0 16 8
19 50 19 41 0 48 -3 43 -16z m1606 2 c10 -12 -5 -15 -89 -21 -106 -8 -128 -3
-96 21 27 19 169 19 185 0z m279 -3 c3 -10 -22 -13 -102 -13 -91 0 -105 2 -99
15 4 13 22 15 101 13 65 -2 97 -7 100 -15z m-2475 -13 c3 -11 10 -20 17 -20 7
0 14 9 17 20 4 16 14 20 49 20 54 0 58 -19 13 -61 -26 -24 -40 -29 -81 -29
-41 0 -54 5 -79 29 -43 43 -39 61 15 61 35 0 45 -4 49 -20z m1652 0 c0 -12
-19 -16 -97 -18 -82 -3 -98 -1 -98 12 0 16 50 24 145 22 37 -1 50 -5 50 -16z
m275 5 c0 -12 -18 -15 -100 -15 -92 0 -112 5 -93 23 3 4 48 7 100 7 76 0 93
-3 93 -15z m-542 -12 c3 -10 -21 -13 -97 -13 -93 0 -113 5 -94 24 13 12 186 2
191 -11z m-1897 -67 c186 -78 286 -95 537 -96 81 0 132 -4 132 -10 0 -16 -362
-12 -445 5 -95 20 -335 114 -335 131 0 8 2 14 4 14 1 0 50 -20 107 -44z m-135
-124 c-4 -54 -16 -136 -26 -181 -19 -78 -78 -236 -86 -228 -2 1 9 34 25 73 39
97 59 181 71 309 5 61 10 113 10 118 0 4 3 7 6 7 4 0 4 -44 0 -98z m1059 38
c26 -11 -140 -11 -175 0 -17 5 5 8 65 8 50 0 99 -3 110 -8z"/>
<path class="draw-path" d="M1890 2055 c0 -8 7 -15 15 -15 8 0 15 7 15 15 0 8 -7 15 -15 15 -8 0
-15 -7 -15 -15z"/>
<path class="draw-path" d="M1897 1923 c-4 -3 -7 -12 -7 -20 0 -15 26 -18 34 -4 7 11 -18 33 -27
24z"/>
<path class="draw-path" d="M1897 1634 c-14 -14 -7 -35 11 -32 9 2 17 10 17 17 0 16 -18 25 -28
15z"/>
<path class="draw-path" d="M1890 1470 c0 -15 5 -20 18 -18 9 2 17 10 17 18 0 8 -8 16 -17 18
-13 2 -18 -3 -18 -18z"/>
<path class="draw-path" d="M1896 2424 c-21 -20 -20 -37 2 -57 37 -33 83 -15 81 33 0 25 0 25 -9
3 -6 -16 -18 -23 -36 -23 -24 0 -26 3 -22 30 5 35 5 35 -16 14z"/>
<path class="draw-path" d="M2387 2363 c-11 -11 -8 -58 5 -71 20 -20 56 -14 74 13 8 13 12 30 8
36 -5 9 -10 5 -16 -10 -12 -34 -53 -25 -53 12 1 27 -5 33 -18 20z"/>
<path class="draw-path" d="M3432 2318 c-19 -19 -14 -56 9 -68 43 -23 91 6 75 46 -8 18 -9 18
-17 -3 -5 -13 -17 -23 -28 -23 -21 0 -33 22 -25 45 7 18 2 19 -14 3z"/>
<path class="draw-path" d="M2891 2287 c-20 -25 -6 -65 26 -73 35 -9 57 6 61 42 l4 28 -20 -23
c-23 -30 -49 -23 -54 15 -3 25 -4 26 -17 11z"/>
<path class="draw-path" d="M2373 2064 c-8 -21 13 -42 28 -27 13 13 5 43 -11 43 -6 0 -13 -7 -17
-16z"/>
<path class="draw-path" d="M2973 2073 c-21 -7 -15 -33 7 -33 11 0 20 6 20 14 0 18 -11 25 -27
19z"/>
<path class="draw-path" d="M8382 1850 c-11 -28 -7 -40 13 -40 8 0 18 -8 24 -17 9 -17 11 -16 30
1 24 22 28 41 6 32 -22 -8 -46 4 -55 28 -8 21 -8 20 -18 -4z"/>
<path class="draw-path" d="M416 1815 c4 -8 10 -15 15 -15 4 0 6 7 3 15 -4 8 -10 15 -15 15 -4 0
-6 -7 -3 -15z"/>
<path class="draw-path" d="M385 1733 c10 -43 25 -57 42 -40 20 20 1 67 -28 67 -18 0 -20 -4 -14
-27z"/>
<path class="draw-path" d="M8662 1758 c-19 -19 -14 -33 18 -57 32 -23 44 -22 60 9 9 16 7 19
-17 17 -19 -1 -30 5 -38 20 -9 17 -14 20 -23 11z"/>
<path class="draw-path" d="M3182 1168 c-7 -7 -12 -21 -12 -33 0 -29 19 -45 51 -45 28 0 39 16
38 53 l0 22 -9 -22 c-11 -26 -48 -31 -56 -8 -4 8 -1 22 6 30 15 18 -1 20 -18
3z"/>
<path class="draw-path" d="M1794 1092 c-33 -23 -12 -82 30 -82 29 0 46 18 45 50 l0 25 -10 -23
c-14 -35 -55 -27 -52 11 2 30 2 30 -13 19z"/>
<path class="draw-path" d="M2747 1002 c-22 -24 -21 -35 1 -55 34 -31 82 -15 82 27 0 19 -1 19
-13 2 -20 -27 -52 -17 -52 17 1 32 2 31 -18 9z"/>
<path class="draw-path" d="M2192 808 c-7 -7 -12 -21 -12 -33 0 -44 52 -61 83 -27 19 21 22 42 7
42 -5 0 -10 -7 -10 -16 0 -11 -8 -14 -27 -12 -24 2 -28 7 -26 31 2 31 1 31
-15 15z"/>
<path class="draw-path" d="M3442 758 c-7 -7 -12 -21 -12 -33 0 -29 19 -45 52 -45 31 0 54 31 43
58 -6 15 -8 14 -16 -5 -10 -26 -47 -31 -55 -8 -4 8 -1 22 6 30 15 18 -1 20
-18 3z"/>
<path class="draw-path" d="M1585 576 c-13 -19 -14 -29 -6 -45 24 -44 91 -33 91 15 l0 26 -18
-22 c-25 -30 -55 -17 -50 21 5 35 3 36 -17 5z"/>
</g>
</svg>
